<?xml version="1.0" standalone="no"?>
<!DOCTYPE svg PUBLIC "-//W3C//DTD SVG 20010904//EN"
 "http://www.w3.org/TR/2001/REC-SVG-20010904/DTD/svg10.dtd">
<svg version="1.0" xmlns="http://www.w3.org/2000/svg"
 width="34.000000pt" height="34.000000pt" viewBox="0 0 34.000000 34.000000"
 preserveAspectRatio="xMidYMid meet">

<g transform="translate(0.000000,34.000000) scale(0.100000,-0.100000)"
fill="#e2e8f0" stroke="#089b93">
<path d="M25 315 c-24 -23 -25 -30 -25 -147 0 -176 -8 -168 186 -168 l154 0 0
148 c0 81 -4 152 -8 158 -17 26 -56 34 -167 34 -110 0 -117 -1 -140 -25z m187
-15 c94 -27 128 -162 57 -226 -20 -18 -21 -18 -34 -1 -11 16 -10 21 11 42 33
33 33 87 -1 120 -18 19 -35 25 -70 25 -35 0 -52 -6 -70 -25 -27 -26 -33 -72
-14 -106 10 -19 11 -19 23 -4 11 16 15 13 39 -28 15 -25 27 -48 27 -51 0 -3
-25 -6 -56 -6 -48 0 -55 2 -50 16 4 10 -1 25 -11 36 -13 15 -18 37 -18 78 0
51 4 63 30 90 24 25 59 43 95 49 3 1 22 -4 42 -9z"/>
</g>
</svg>
